<mxfile host="app.diagrams.net" modified="2023-12-22T14:29:04.940Z" agent="Mozilla/5.0 (Windows NT 10.0; Win64; x64) AppleWebKit/537.36 (KHTML, like Gecko) Chrome/120.0.0.0 Safari/537.36" etag="1ID2P76gcA-mmhgB9h3Y" version="22.1.11" type="device">
  <diagram name="Page-1" id="03gn54fC_PQJAzi-wbwn">
    <mxGraphModel dx="1430" dy="778" grid="0" gridSize="10" guides="1" tooltips="1" connect="1" arrows="1" fold="1" page="1" pageScale="1" pageWidth="2339" pageHeight="3300" math="0" shadow="0">
      <root>
        <mxCell id="0" />
        <mxCell id="1" parent="0" />
        <mxCell id="0YOIlWyVi92QSZji-Vm6-14" value="" style="rounded=0;whiteSpace=wrap;html=1;fillColor=none;dashed=1;dashPattern=12 12;shadow=0;labelBackgroundColor=none;strokeColor=#E07A5F;fontColor=#393C56;" vertex="1" parent="1">
          <mxGeometry x="1563" y="1296" width="399" height="61" as="geometry" />
        </mxCell>
        <mxCell id="8Pn0S1RL_JVSQfI87vA--12" value="" style="rounded=0;whiteSpace=wrap;html=1;fillColor=none;dashed=1;dashPattern=12 12;shadow=0;labelBackgroundColor=none;strokeColor=#E07A5F;fontColor=#393C56;" parent="1" vertex="1">
          <mxGeometry x="729" y="358" width="131" height="150" as="geometry" />
        </mxCell>
        <mxCell id="8Pn0S1RL_JVSQfI87vA--2" value="User service" style="rounded=1;arcSize=10;whiteSpace=wrap;html=1;align=center;labelBackgroundColor=none;fillColor=#F2CC8F;strokeColor=#E07A5F;fontColor=#393C56;" parent="1" vertex="1">
          <mxGeometry x="366" y="405" width="100" height="40" as="geometry" />
        </mxCell>
        <mxCell id="8Pn0S1RL_JVSQfI87vA--3" value="queue" style="strokeWidth=2;html=1;shape=mxgraph.flowchart.database;whiteSpace=wrap;labelBackgroundColor=none;fillColor=#F2CC8F;strokeColor=#E07A5F;fontColor=#393C56;" parent="1" vertex="1">
          <mxGeometry x="560" y="390" width="80" height="70" as="geometry" />
        </mxCell>
        <mxCell id="8Pn0S1RL_JVSQfI87vA--4" value="" style="html=1;shadow=0;dashed=0;align=center;verticalAlign=middle;shape=mxgraph.arrows2.arrow;dy=0.71;dx=24.67;notch=0;labelBackgroundColor=none;fillColor=#F2CC8F;strokeColor=#E07A5F;fontColor=#393C56;" parent="1" vertex="1">
          <mxGeometry x="474" y="405" width="80" height="40" as="geometry" />
        </mxCell>
        <mxCell id="8Pn0S1RL_JVSQfI87vA--5" value="created" style="text;strokeColor=none;fillColor=none;spacingLeft=4;spacingRight=4;overflow=hidden;rotatable=0;points=[[0,0.5],[1,0.5]];portConstraint=eastwest;fontSize=12;whiteSpace=wrap;html=1;labelBackgroundColor=none;fontColor=#393C56;" parent="1" vertex="1">
          <mxGeometry x="474" y="390" width="80" height="30" as="geometry" />
        </mxCell>
        <mxCell id="8Pn0S1RL_JVSQfI87vA--6" value="service A" style="rounded=1;arcSize=10;whiteSpace=wrap;html=1;align=center;labelBackgroundColor=none;fillColor=#F2CC8F;strokeColor=#E07A5F;fontColor=#393C56;" parent="1" vertex="1">
          <mxGeometry x="743" y="365" width="100" height="40" as="geometry" />
        </mxCell>
        <mxCell id="8Pn0S1RL_JVSQfI87vA--7" value="service B" style="rounded=1;arcSize=10;whiteSpace=wrap;html=1;align=center;labelBackgroundColor=none;fillColor=#F2CC8F;strokeColor=#E07A5F;fontColor=#393C56;" parent="1" vertex="1">
          <mxGeometry x="743" y="460" width="100" height="40" as="geometry" />
        </mxCell>
        <mxCell id="8Pn0S1RL_JVSQfI87vA--8" value="" style="html=1;shadow=0;dashed=0;align=center;verticalAlign=middle;shape=mxgraph.arrows2.arrow;dy=0.71;dx=24.67;notch=0;rotation=-22;labelBackgroundColor=none;fillColor=#F2CC8F;strokeColor=#E07A5F;fontColor=#393C56;" parent="1" vertex="1">
          <mxGeometry x="650" y="380" width="80" height="40" as="geometry" />
        </mxCell>
        <mxCell id="8Pn0S1RL_JVSQfI87vA--9" value="" style="html=1;shadow=0;dashed=0;align=center;verticalAlign=middle;shape=mxgraph.arrows2.arrow;dy=0.71;dx=24.67;notch=0;rotation=20;flipV=1;flipH=0;labelBackgroundColor=none;fillColor=#F2CC8F;strokeColor=#E07A5F;fontColor=#393C56;" parent="1" vertex="1">
          <mxGeometry x="650" y="440" width="80" height="40" as="geometry" />
        </mxCell>
        <mxCell id="8Pn0S1RL_JVSQfI87vA--10" value="" style="html=1;shadow=0;dashed=0;align=center;verticalAlign=middle;shape=mxgraph.arrows2.bendArrow;dy=6.12;dx=28.32;notch=0;arrowHead=51.25;rounded=0;labelBackgroundColor=none;fillColor=#F2CC8F;strokeColor=#E07A5F;fontColor=#393C56;" parent="1" vertex="1">
          <mxGeometry x="635" y="280" width="90" height="100" as="geometry" />
        </mxCell>
        <mxCell id="8Pn0S1RL_JVSQfI87vA--11" value="send email" style="rounded=1;arcSize=10;whiteSpace=wrap;html=1;align=center;labelBackgroundColor=none;fillColor=#F2CC8F;strokeColor=#E07A5F;fontColor=#393C56;" parent="1" vertex="1">
          <mxGeometry x="747" y="286" width="100" height="40" as="geometry" />
        </mxCell>
        <mxCell id="8Pn0S1RL_JVSQfI87vA--13" value="send event" style="text;html=1;strokeColor=none;fillColor=none;align=center;verticalAlign=middle;whiteSpace=wrap;rounded=0;labelBackgroundColor=none;fontColor=#393C56;" parent="1" vertex="1">
          <mxGeometry x="603" y="250" width="140" height="30" as="geometry" />
        </mxCell>
        <mxCell id="8Pn0S1RL_JVSQfI87vA--14" value="" style="rounded=0;whiteSpace=wrap;html=1;fillColor=none;dashed=1;dashPattern=12 12;shadow=0;labelBackgroundColor=none;strokeColor=#E07A5F;fontColor=#393C56;" parent="1" vertex="1">
          <mxGeometry x="728" y="270" width="130" height="72" as="geometry" />
        </mxCell>
        <mxCell id="8Pn0S1RL_JVSQfI87vA--15" value="&lt;span style=&quot;color: rgb(0, 0, 0); font-family: Helvetica; font-size: 12px; font-style: normal; font-variant-ligatures: normal; font-variant-caps: normal; font-weight: 400; letter-spacing: normal; orphans: 2; text-align: center; text-indent: 0px; text-transform: none; widows: 2; word-spacing: 0px; -webkit-text-stroke-width: 0px; background-color: rgb(251, 251, 251); text-decoration-thickness: initial; text-decoration-style: initial; text-decoration-color: initial; float: none; display: inline !important;&quot;&gt;publish event&lt;/span&gt;" style="text;whiteSpace=wrap;html=1;labelBackgroundColor=none;fontColor=#393C56;" parent="1" vertex="1">
          <mxGeometry x="638" y="500" width="90" height="40" as="geometry" />
        </mxCell>
        <mxCell id="8Pn0S1RL_JVSQfI87vA--17" value="event notify" style="text;html=1;strokeColor=none;fillColor=none;align=center;verticalAlign=middle;whiteSpace=wrap;rounded=0;labelBackgroundColor=none;fontColor=#393C56;" parent="1" vertex="1">
          <mxGeometry x="310" y="150" width="140" height="30" as="geometry" />
        </mxCell>
        <mxCell id="8Pn0S1RL_JVSQfI87vA--18" value="Hey! The user with that id has been created. Please do your things :)" style="text;html=1;align=center;verticalAlign=middle;whiteSpace=wrap;rounded=0;labelBackgroundColor=none;fontColor=#393C56;" parent="1" vertex="1">
          <mxGeometry x="440" y="300" width="173" height="58" as="geometry" />
        </mxCell>
        <mxCell id="8Pn0S1RL_JVSQfI87vA--35" value="" style="rounded=0;whiteSpace=wrap;html=1;fillColor=none;dashed=1;dashPattern=12 12;shadow=0;labelBackgroundColor=none;strokeColor=#E07A5F;fontColor=#393C56;" parent="1" vertex="1">
          <mxGeometry x="1589" y="328" width="131" height="150" as="geometry" />
        </mxCell>
        <mxCell id="8Pn0S1RL_JVSQfI87vA--36" value="User service" style="rounded=1;arcSize=10;whiteSpace=wrap;html=1;align=center;labelBackgroundColor=none;fillColor=#F2CC8F;strokeColor=#E07A5F;fontColor=#393C56;" parent="1" vertex="1">
          <mxGeometry x="1226" y="375" width="100" height="40" as="geometry" />
        </mxCell>
        <mxCell id="8Pn0S1RL_JVSQfI87vA--37" value="queue" style="strokeWidth=2;html=1;shape=mxgraph.flowchart.database;whiteSpace=wrap;labelBackgroundColor=none;fillColor=#F2CC8F;strokeColor=#E07A5F;fontColor=#393C56;" parent="1" vertex="1">
          <mxGeometry x="1420" y="360" width="80" height="70" as="geometry" />
        </mxCell>
        <mxCell id="8Pn0S1RL_JVSQfI87vA--38" value="" style="html=1;shadow=0;dashed=0;align=center;verticalAlign=middle;shape=mxgraph.arrows2.arrow;dy=0.71;dx=24.67;notch=0;labelBackgroundColor=none;fillColor=#F2CC8F;strokeColor=#E07A5F;fontColor=#393C56;" parent="1" vertex="1">
          <mxGeometry x="1334" y="375" width="80" height="40" as="geometry" />
        </mxCell>
        <mxCell id="8Pn0S1RL_JVSQfI87vA--39" value="created" style="text;strokeColor=none;fillColor=none;spacingLeft=4;spacingRight=4;overflow=hidden;rotatable=0;points=[[0,0.5],[1,0.5]];portConstraint=eastwest;fontSize=12;whiteSpace=wrap;html=1;labelBackgroundColor=none;fontColor=#393C56;" parent="1" vertex="1">
          <mxGeometry x="1334" y="360" width="80" height="30" as="geometry" />
        </mxCell>
        <mxCell id="8Pn0S1RL_JVSQfI87vA--40" value="service A" style="rounded=1;arcSize=10;whiteSpace=wrap;html=1;align=center;labelBackgroundColor=none;fillColor=#F2CC8F;strokeColor=#E07A5F;fontColor=#393C56;" parent="1" vertex="1">
          <mxGeometry x="1603" y="335" width="100" height="40" as="geometry" />
        </mxCell>
        <mxCell id="8Pn0S1RL_JVSQfI87vA--41" value="service B" style="rounded=1;arcSize=10;whiteSpace=wrap;html=1;align=center;labelBackgroundColor=none;fillColor=#F2CC8F;strokeColor=#E07A5F;fontColor=#393C56;" parent="1" vertex="1">
          <mxGeometry x="1603" y="430" width="100" height="40" as="geometry" />
        </mxCell>
        <mxCell id="8Pn0S1RL_JVSQfI87vA--42" value="" style="html=1;shadow=0;dashed=0;align=center;verticalAlign=middle;shape=mxgraph.arrows2.arrow;dy=0.71;dx=24.67;notch=0;rotation=-22;labelBackgroundColor=none;fillColor=#F2CC8F;strokeColor=#E07A5F;fontColor=#393C56;" parent="1" vertex="1">
          <mxGeometry x="1510" y="350" width="80" height="40" as="geometry" />
        </mxCell>
        <mxCell id="8Pn0S1RL_JVSQfI87vA--43" value="" style="html=1;shadow=0;dashed=0;align=center;verticalAlign=middle;shape=mxgraph.arrows2.arrow;dy=0.71;dx=24.67;notch=0;rotation=20;flipV=1;flipH=0;labelBackgroundColor=none;fillColor=#F2CC8F;strokeColor=#E07A5F;fontColor=#393C56;" parent="1" vertex="1">
          <mxGeometry x="1510" y="410" width="80" height="40" as="geometry" />
        </mxCell>
        <mxCell id="8Pn0S1RL_JVSQfI87vA--44" value="" style="html=1;shadow=0;dashed=0;align=center;verticalAlign=middle;shape=mxgraph.arrows2.bendArrow;dy=6.12;dx=28.32;notch=0;arrowHead=51.25;rounded=0;labelBackgroundColor=none;fillColor=#F2CC8F;strokeColor=#E07A5F;fontColor=#393C56;" parent="1" vertex="1">
          <mxGeometry x="1495" y="250" width="90" height="100" as="geometry" />
        </mxCell>
        <mxCell id="8Pn0S1RL_JVSQfI87vA--45" value="send email" style="rounded=1;arcSize=10;whiteSpace=wrap;html=1;align=center;labelBackgroundColor=none;fillColor=#F2CC8F;strokeColor=#E07A5F;fontColor=#393C56;" parent="1" vertex="1">
          <mxGeometry x="1607" y="256" width="100" height="40" as="geometry" />
        </mxCell>
        <mxCell id="8Pn0S1RL_JVSQfI87vA--46" value="send event" style="text;html=1;strokeColor=none;fillColor=none;align=center;verticalAlign=middle;whiteSpace=wrap;rounded=0;labelBackgroundColor=none;fontColor=#393C56;" parent="1" vertex="1">
          <mxGeometry x="1463" y="220" width="140" height="30" as="geometry" />
        </mxCell>
        <mxCell id="8Pn0S1RL_JVSQfI87vA--47" value="" style="rounded=0;whiteSpace=wrap;html=1;fillColor=none;dashed=1;dashPattern=12 12;shadow=0;labelBackgroundColor=none;strokeColor=#E07A5F;fontColor=#393C56;" parent="1" vertex="1">
          <mxGeometry x="1588" y="240" width="130" height="72" as="geometry" />
        </mxCell>
        <mxCell id="8Pn0S1RL_JVSQfI87vA--48" value="&lt;span style=&quot;color: rgb(0, 0, 0); font-family: Helvetica; font-size: 12px; font-style: normal; font-variant-ligatures: normal; font-variant-caps: normal; font-weight: 400; letter-spacing: normal; orphans: 2; text-align: center; text-indent: 0px; text-transform: none; widows: 2; word-spacing: 0px; -webkit-text-stroke-width: 0px; background-color: rgb(251, 251, 251); text-decoration-thickness: initial; text-decoration-style: initial; text-decoration-color: initial; float: none; display: inline !important;&quot;&gt;publish event&lt;/span&gt;" style="text;whiteSpace=wrap;html=1;labelBackgroundColor=none;fontColor=#393C56;" parent="1" vertex="1">
          <mxGeometry x="1498" y="470" width="90" height="40" as="geometry" />
        </mxCell>
        <mxCell id="8Pn0S1RL_JVSQfI87vA--49" value="event state transfer" style="text;html=1;strokeColor=none;fillColor=none;align=center;verticalAlign=middle;whiteSpace=wrap;rounded=0;labelBackgroundColor=none;fontColor=#393C56;" parent="1" vertex="1">
          <mxGeometry x="1170" y="120" width="140" height="30" as="geometry" />
        </mxCell>
        <mxCell id="8Pn0S1RL_JVSQfI87vA--50" value="Hey! The user has been created. Here is the UserEntity. Please do your things :)" style="text;html=1;align=center;verticalAlign=middle;whiteSpace=wrap;rounded=0;labelBackgroundColor=none;fontColor=#393C56;" parent="1" vertex="1">
          <mxGeometry x="1300" y="279" width="173" height="61" as="geometry" />
        </mxCell>
        <mxCell id="8Pn0S1RL_JVSQfI87vA--51" value="" style="rounded=0;whiteSpace=wrap;html=1;fillColor=none;dashed=1;dashPattern=12 12;shadow=0;labelBackgroundColor=none;strokeColor=#E07A5F;fontColor=#393C56;" parent="1" vertex="1">
          <mxGeometry x="732" y="879" width="131" height="150" as="geometry" />
        </mxCell>
        <mxCell id="8Pn0S1RL_JVSQfI87vA--52" value="User service" style="rounded=1;arcSize=10;whiteSpace=wrap;html=1;align=center;labelBackgroundColor=none;fillColor=#F2CC8F;strokeColor=#E07A5F;fontColor=#393C56;" parent="1" vertex="1">
          <mxGeometry x="364" y="915" width="100" height="40" as="geometry" />
        </mxCell>
        <mxCell id="8Pn0S1RL_JVSQfI87vA--53" value="queue" style="strokeWidth=2;html=1;shape=mxgraph.flowchart.database;whiteSpace=wrap;labelBackgroundColor=none;fillColor=#F2CC8F;strokeColor=#E07A5F;fontColor=#393C56;" parent="1" vertex="1">
          <mxGeometry x="558" y="900" width="80" height="70" as="geometry" />
        </mxCell>
        <mxCell id="8Pn0S1RL_JVSQfI87vA--54" value="" style="html=1;shadow=0;dashed=0;align=center;verticalAlign=middle;shape=mxgraph.arrows2.arrow;dy=0.71;dx=24.67;notch=0;labelBackgroundColor=none;fillColor=#F2CC8F;strokeColor=#E07A5F;fontColor=#393C56;" parent="1" vertex="1">
          <mxGeometry x="472" y="915" width="80" height="40" as="geometry" />
        </mxCell>
        <mxCell id="8Pn0S1RL_JVSQfI87vA--55" value="created" style="text;strokeColor=none;fillColor=none;spacingLeft=4;spacingRight=4;overflow=hidden;rotatable=0;points=[[0,0.5],[1,0.5]];portConstraint=eastwest;fontSize=12;whiteSpace=wrap;html=1;labelBackgroundColor=none;fontColor=#393C56;" parent="1" vertex="1">
          <mxGeometry x="472" y="900" width="80" height="30" as="geometry" />
        </mxCell>
        <mxCell id="8Pn0S1RL_JVSQfI87vA--56" value="service A" style="rounded=1;arcSize=10;whiteSpace=wrap;html=1;align=center;labelBackgroundColor=none;fillColor=#F2CC8F;strokeColor=#E07A5F;fontColor=#393C56;" parent="1" vertex="1">
          <mxGeometry x="746" y="886" width="100" height="40" as="geometry" />
        </mxCell>
        <mxCell id="8Pn0S1RL_JVSQfI87vA--57" value="service B" style="rounded=1;arcSize=10;whiteSpace=wrap;html=1;align=center;labelBackgroundColor=none;fillColor=#F2CC8F;strokeColor=#E07A5F;fontColor=#393C56;" parent="1" vertex="1">
          <mxGeometry x="746" y="981" width="100" height="40" as="geometry" />
        </mxCell>
        <mxCell id="8Pn0S1RL_JVSQfI87vA--58" value="" style="html=1;shadow=0;dashed=0;align=center;verticalAlign=middle;shape=mxgraph.arrows2.arrow;dy=0.71;dx=24.67;notch=0;rotation=-22;labelBackgroundColor=none;fillColor=#F2CC8F;strokeColor=#E07A5F;fontColor=#393C56;" parent="1" vertex="1">
          <mxGeometry x="648" y="890" width="80" height="40" as="geometry" />
        </mxCell>
        <mxCell id="8Pn0S1RL_JVSQfI87vA--59" value="" style="html=1;shadow=0;dashed=0;align=center;verticalAlign=middle;shape=mxgraph.arrows2.arrow;dy=0.71;dx=24.67;notch=0;rotation=20;flipV=1;flipH=0;labelBackgroundColor=none;fillColor=#F2CC8F;strokeColor=#E07A5F;fontColor=#393C56;" parent="1" vertex="1">
          <mxGeometry x="648" y="950" width="80" height="40" as="geometry" />
        </mxCell>
        <mxCell id="8Pn0S1RL_JVSQfI87vA--60" value="" style="html=1;shadow=0;dashed=0;align=center;verticalAlign=middle;shape=mxgraph.arrows2.bendArrow;dy=6.12;dx=28.32;notch=0;arrowHead=51.25;rounded=0;labelBackgroundColor=none;fillColor=#F2CC8F;strokeColor=#E07A5F;fontColor=#393C56;" parent="1" vertex="1">
          <mxGeometry x="633" y="790" width="90" height="100" as="geometry" />
        </mxCell>
        <mxCell id="8Pn0S1RL_JVSQfI87vA--61" value="send email" style="rounded=1;arcSize=10;whiteSpace=wrap;html=1;align=center;labelBackgroundColor=none;fillColor=#F2CC8F;strokeColor=#E07A5F;fontColor=#393C56;" parent="1" vertex="1">
          <mxGeometry x="750" y="807" width="100" height="40" as="geometry" />
        </mxCell>
        <mxCell id="8Pn0S1RL_JVSQfI87vA--63" value="" style="rounded=0;whiteSpace=wrap;html=1;fillColor=none;dashed=1;dashPattern=12 12;shadow=0;labelBackgroundColor=none;strokeColor=#E07A5F;fontColor=#393C56;" parent="1" vertex="1">
          <mxGeometry x="731" y="791" width="130" height="72" as="geometry" />
        </mxCell>
        <mxCell id="8Pn0S1RL_JVSQfI87vA--65" value="event sourcing" style="text;html=1;strokeColor=none;fillColor=none;align=center;verticalAlign=middle;whiteSpace=wrap;rounded=0;labelBackgroundColor=none;fontColor=#393C56;" parent="1" vertex="1">
          <mxGeometry x="308" y="660" width="140" height="30" as="geometry" />
        </mxCell>
        <mxCell id="8Pn0S1RL_JVSQfI87vA--66" value="Hey! The user has been created. Here is needed data. Please do your things :)" style="text;html=1;align=center;verticalAlign=middle;whiteSpace=wrap;rounded=0;labelBackgroundColor=none;fontColor=#393C56;" parent="1" vertex="1">
          <mxGeometry x="448" y="819" width="163" height="49" as="geometry" />
        </mxCell>
        <mxCell id="8Pn0S1RL_JVSQfI87vA--67" value="event store" style="strokeWidth=2;html=1;shape=mxgraph.flowchart.database;whiteSpace=wrap;labelBackgroundColor=none;fillColor=#F2CC8F;strokeColor=#E07A5F;fontColor=#393C56;" parent="1" vertex="1">
          <mxGeometry x="558" y="990" width="80" height="69" as="geometry" />
        </mxCell>
        <mxCell id="8Pn0S1RL_JVSQfI87vA--68" value="" style="html=1;shadow=0;dashed=0;align=center;verticalAlign=middle;shape=mxgraph.arrows2.arrow;dy=0.71;dx=24.67;notch=0;rotation=40;labelBackgroundColor=none;fillColor=#F2CC8F;strokeColor=#E07A5F;fontColor=#393C56;" parent="1" vertex="1">
          <mxGeometry x="466" y="970" width="80" height="40" as="geometry" />
        </mxCell>
        <mxCell id="8Pn0S1RL_JVSQfI87vA--69" value="send event" style="text;html=1;strokeColor=none;fillColor=none;align=center;verticalAlign=middle;whiteSpace=wrap;rounded=0;labelBackgroundColor=none;fontColor=#393C56;" parent="1" vertex="1">
          <mxGeometry x="611" y="760" width="140" height="30" as="geometry" />
        </mxCell>
        <mxCell id="8Pn0S1RL_JVSQfI87vA--70" value="&lt;span style=&quot;color: rgb(0, 0, 0); font-family: Helvetica; font-size: 12px; font-style: normal; font-variant-ligatures: normal; font-variant-caps: normal; font-weight: 400; letter-spacing: normal; orphans: 2; text-align: center; text-indent: 0px; text-transform: none; widows: 2; word-spacing: 0px; -webkit-text-stroke-width: 0px; background-color: rgb(251, 251, 251); text-decoration-thickness: initial; text-decoration-style: initial; text-decoration-color: initial; float: none; display: inline !important;&quot;&gt;publish event&lt;/span&gt;" style="text;whiteSpace=wrap;html=1;labelBackgroundColor=none;fontColor=#393C56;" parent="1" vertex="1">
          <mxGeometry x="648" y="1000" width="90" height="40" as="geometry" />
        </mxCell>
        <mxCell id="8Pn0S1RL_JVSQfI87vA--71" value="User service" style="rounded=1;arcSize=10;whiteSpace=wrap;html=1;align=center;labelBackgroundColor=none;fillColor=#F2CC8F;strokeColor=#E07A5F;fontColor=#393C56;" parent="1" vertex="1">
          <mxGeometry x="1200" y="850" width="100" height="40" as="geometry" />
        </mxCell>
        <mxCell id="8Pn0S1RL_JVSQfI87vA--72" value="" style="html=1;shadow=0;dashed=0;align=center;verticalAlign=middle;shape=mxgraph.arrows2.arrow;dy=0.71;dx=24.67;notch=0;rotation=-18;labelBackgroundColor=none;fillColor=#F2CC8F;strokeColor=#E07A5F;fontColor=#393C56;" parent="1" vertex="1">
          <mxGeometry x="1310" y="828" width="80" height="40" as="geometry" />
        </mxCell>
        <mxCell id="8Pn0S1RL_JVSQfI87vA--74" value="Command" style="rounded=1;arcSize=10;whiteSpace=wrap;html=1;align=center;labelBackgroundColor=none;fillColor=#F2CC8F;strokeColor=#E07A5F;fontColor=#393C56;" parent="1" vertex="1">
          <mxGeometry x="1398" y="810" width="100" height="40" as="geometry" />
        </mxCell>
        <mxCell id="8Pn0S1RL_JVSQfI87vA--75" value="Query" style="rounded=1;arcSize=10;whiteSpace=wrap;html=1;align=center;labelBackgroundColor=none;fillColor=#F2CC8F;strokeColor=#E07A5F;fontColor=#393C56;" parent="1" vertex="1">
          <mxGeometry x="1398" y="890" width="100" height="40" as="geometry" />
        </mxCell>
        <mxCell id="8Pn0S1RL_JVSQfI87vA--76" value="" style="html=1;shadow=0;dashed=0;align=center;verticalAlign=middle;shape=mxgraph.arrows2.arrow;dy=0.71;dx=24.67;notch=0;rotation=20;labelBackgroundColor=none;fillColor=#F2CC8F;strokeColor=#E07A5F;fontColor=#393C56;" parent="1" vertex="1">
          <mxGeometry x="1310" y="879" width="80" height="40" as="geometry" />
        </mxCell>
        <mxCell id="8Pn0S1RL_JVSQfI87vA--77" value="" style="html=1;shadow=0;dashed=0;align=center;verticalAlign=middle;shape=mxgraph.arrows2.arrow;dy=0.71;dx=24.67;notch=0;labelBackgroundColor=none;fillColor=#F2CC8F;strokeColor=#E07A5F;fontColor=#393C56;rotation=20;" parent="1" vertex="1">
          <mxGeometry x="1510" y="819" width="80" height="40" as="geometry" />
        </mxCell>
        <mxCell id="8Pn0S1RL_JVSQfI87vA--78" value="" style="html=1;shadow=0;dashed=0;align=center;verticalAlign=middle;shape=mxgraph.arrows2.arrow;dy=0.71;dx=24.67;notch=0;labelBackgroundColor=none;fillColor=#F2CC8F;strokeColor=#E07A5F;fontColor=#393C56;flipV=1;flipH=1;rotation=-20;" parent="1" vertex="1">
          <mxGeometry x="1509" y="879" width="80" height="40" as="geometry" />
        </mxCell>
        <mxCell id="8Pn0S1RL_JVSQfI87vA--79" value="db" style="strokeWidth=2;html=1;shape=mxgraph.flowchart.database;whiteSpace=wrap;labelBackgroundColor=none;fillColor=#F2CC8F;strokeColor=#E07A5F;fontColor=#393C56;" parent="1" vertex="1">
          <mxGeometry x="1603" y="835" width="80" height="70" as="geometry" />
        </mxCell>
        <mxCell id="8Pn0S1RL_JVSQfI87vA--80" value="cqrs" style="text;html=1;strokeColor=none;fillColor=none;align=center;verticalAlign=middle;whiteSpace=wrap;rounded=0;labelBackgroundColor=none;fontColor=#393C56;" parent="1" vertex="1">
          <mxGeometry x="1194" y="650" width="140" height="30" as="geometry" />
        </mxCell>
        <mxCell id="8Pn0S1RL_JVSQfI87vA--82" value="Event notification" style="text;html=1;strokeColor=none;fillColor=none;align=center;verticalAlign=middle;whiteSpace=wrap;rounded=0;labelBackgroundColor=none;fontColor=#393C56;" parent="1" vertex="1">
          <mxGeometry x="351" y="246" width="140" height="30" as="geometry" />
        </mxCell>
        <mxCell id="8Pn0S1RL_JVSQfI87vA--83" value="Event sourcing" style="text;html=1;strokeColor=none;fillColor=none;align=center;verticalAlign=middle;whiteSpace=wrap;rounded=0;labelBackgroundColor=none;fontColor=#393C56;" parent="1" vertex="1">
          <mxGeometry x="346" y="780" width="140" height="30" as="geometry" />
        </mxCell>
        <mxCell id="8Pn0S1RL_JVSQfI87vA--85" value="Event-carried state transfer" style="text;html=1;strokeColor=none;fillColor=none;align=center;verticalAlign=middle;whiteSpace=wrap;rounded=0;labelBackgroundColor=none;fontColor=#393C56;" parent="1" vertex="1">
          <mxGeometry x="1212" y="240" width="167" height="27" as="geometry" />
        </mxCell>
        <mxCell id="8Pn0S1RL_JVSQfI87vA--86" value="CQRS" style="text;html=1;strokeColor=none;fillColor=none;align=center;verticalAlign=middle;whiteSpace=wrap;rounded=0;labelBackgroundColor=none;fontColor=#393C56;" parent="1" vertex="1">
          <mxGeometry x="1165" y="791" width="140" height="30" as="geometry" />
        </mxCell>
        <mxCell id="8Pn0S1RL_JVSQfI87vA--87" value="Producer" style="rounded=1;arcSize=10;whiteSpace=wrap;html=1;align=center;labelBackgroundColor=none;fillColor=#F2CC8F;strokeColor=#E07A5F;fontColor=#393C56;" parent="1" vertex="1">
          <mxGeometry x="1893" y="737" width="100" height="40" as="geometry" />
        </mxCell>
        <mxCell id="8Pn0S1RL_JVSQfI87vA--88" value="queue" style="strokeWidth=2;html=1;shape=mxgraph.flowchart.database;whiteSpace=wrap;labelBackgroundColor=none;fillColor=#F2CC8F;strokeColor=#E07A5F;fontColor=#393C56;" parent="1" vertex="1">
          <mxGeometry x="2022" y="617" width="80" height="70" as="geometry" />
        </mxCell>
        <mxCell id="8Pn0S1RL_JVSQfI87vA--91" value="" style="html=1;shadow=0;dashed=0;align=center;verticalAlign=middle;shape=mxgraph.arrows2.bendArrow;dy=6.12;dx=28.32;notch=0;arrowHead=51.25;rounded=0;labelBackgroundColor=none;fillColor=#F2CC8F;strokeColor=#E07A5F;fontColor=#393C56;" parent="1" vertex="1">
          <mxGeometry x="2053" y="532" width="90" height="76" as="geometry" />
        </mxCell>
        <mxCell id="8Pn0S1RL_JVSQfI87vA--92" value="Consumer" style="rounded=1;arcSize=10;whiteSpace=wrap;html=1;align=center;labelBackgroundColor=none;fillColor=#F2CC8F;strokeColor=#E07A5F;fontColor=#393C56;" parent="1" vertex="1">
          <mxGeometry x="2149" y="537" width="100" height="40" as="geometry" />
        </mxCell>
        <mxCell id="8Pn0S1RL_JVSQfI87vA--93" value="" style="html=1;shadow=0;dashed=0;align=center;verticalAlign=middle;shape=mxgraph.arrows2.bendArrow;dy=6.12;dx=28.32;notch=0;arrowHead=51.25;rounded=0;labelBackgroundColor=none;fillColor=#F2CC8F;strokeColor=#E07A5F;fontColor=#393C56;rotation=-90;flipH=0;flipV=1;" parent="1" vertex="1">
          <mxGeometry x="2010" y="683" width="68" height="90" as="geometry" />
        </mxCell>
        <mxCell id="8Pn0S1RL_JVSQfI87vA--94" value="service A" style="rounded=1;arcSize=10;whiteSpace=wrap;html=1;align=center;labelBackgroundColor=none;fillColor=#F2CC8F;strokeColor=#E07A5F;fontColor=#393C56;" parent="1" vertex="1">
          <mxGeometry x="479.5" y="1471" width="100" height="40" as="geometry" />
        </mxCell>
        <mxCell id="8Pn0S1RL_JVSQfI87vA--101" value="" style="html=1;shadow=0;dashed=0;align=center;verticalAlign=middle;shape=mxgraph.arrows2.arrow;dy=0.64;dx=28.33;notch=0;strokeColor=#E07A5F;fontColor=#393C56;fillColor=#F2CC8F;" parent="1" vertex="1">
          <mxGeometry x="466" y="1513" width="566" height="26" as="geometry" />
        </mxCell>
        <mxCell id="8Pn0S1RL_JVSQfI87vA--102" value="" style="shape=partialRectangle;whiteSpace=wrap;html=1;top=0;bottom=0;fillColor=none;strokeColor=#E07A5F;fontColor=#393C56;" parent="1" vertex="1">
          <mxGeometry x="521.5" y="1514" width="16" height="24" as="geometry" />
        </mxCell>
        <mxCell id="8Pn0S1RL_JVSQfI87vA--103" value="service B" style="rounded=1;arcSize=10;whiteSpace=wrap;html=1;align=center;labelBackgroundColor=none;fillColor=#F2CC8F;strokeColor=#E07A5F;fontColor=#393C56;" parent="1" vertex="1">
          <mxGeometry x="596" y="1471" width="100" height="40" as="geometry" />
        </mxCell>
        <mxCell id="8Pn0S1RL_JVSQfI87vA--104" value="" style="shape=partialRectangle;whiteSpace=wrap;html=1;top=0;bottom=0;fillColor=none;strokeColor=#E07A5F;fontColor=#393C56;" parent="1" vertex="1">
          <mxGeometry x="638" y="1514" width="16" height="24" as="geometry" />
        </mxCell>
        <mxCell id="8Pn0S1RL_JVSQfI87vA--105" value="service B" style="rounded=1;arcSize=10;whiteSpace=wrap;html=1;align=center;labelBackgroundColor=none;fillColor=#F2CC8F;strokeColor=#E07A5F;fontColor=#393C56;" parent="1" vertex="1">
          <mxGeometry x="882" y="1471" width="100" height="40" as="geometry" />
        </mxCell>
        <mxCell id="8Pn0S1RL_JVSQfI87vA--106" value="" style="shape=partialRectangle;whiteSpace=wrap;html=1;top=0;bottom=0;fillColor=none;strokeColor=#E07A5F;fontColor=#393C56;" parent="1" vertex="1">
          <mxGeometry x="924" y="1514" width="16" height="24" as="geometry" />
        </mxCell>
        <mxCell id="8Pn0S1RL_JVSQfI87vA--107" value="queue" style="strokeWidth=2;html=1;shape=mxgraph.flowchart.database;whiteSpace=wrap;labelBackgroundColor=none;fillColor=#F2CC8F;strokeColor=#E07A5F;fontColor=#393C56;" parent="1" vertex="1">
          <mxGeometry x="606" y="1316" width="80" height="70" as="geometry" />
        </mxCell>
        <mxCell id="8Pn0S1RL_JVSQfI87vA--108" value="" style="endArrow=classic;html=1;rounded=0;strokeColor=#E07A5F;fontColor=default;labelBackgroundColor=none;exitX=0.5;exitY=0;exitDx=0;exitDy=0;entryX=0;entryY=0.5;entryDx=0;entryDy=0;entryPerimeter=0;" parent="1" source="8Pn0S1RL_JVSQfI87vA--94" target="8Pn0S1RL_JVSQfI87vA--107" edge="1">
          <mxGeometry relative="1" as="geometry">
            <mxPoint x="521.5" y="1335" as="sourcePoint" />
            <mxPoint x="521.5" y="1419.670000000001" as="targetPoint" />
            <Array as="points">
              <mxPoint x="528" y="1351" />
            </Array>
          </mxGeometry>
        </mxCell>
        <mxCell id="8Pn0S1RL_JVSQfI87vA--109" value="" style="shape=message;html=1;outlineConnect=0;strokeColor=#E07A5F;fontColor=#393C56;fillColor=#F2CC8F;labelBackgroundColor=none;direction=east;" parent="8Pn0S1RL_JVSQfI87vA--108" vertex="1">
          <mxGeometry width="20" height="14" relative="1" as="geometry">
            <mxPoint x="-10" y="-7" as="offset" />
          </mxGeometry>
        </mxCell>
        <mxCell id="8Pn0S1RL_JVSQfI87vA--110" value="" style="endArrow=classic;html=1;rounded=0;strokeColor=#E07A5F;fontColor=default;labelBackgroundColor=none;" parent="1" edge="1">
          <mxGeometry relative="1" as="geometry">
            <mxPoint x="643.0000000000001" y="1386" as="sourcePoint" />
            <mxPoint x="643.0000000000001" y="1470.670000000001" as="targetPoint" />
            <Array as="points">
              <mxPoint x="643.0000000000001" y="1423" />
            </Array>
          </mxGeometry>
        </mxCell>
        <mxCell id="8Pn0S1RL_JVSQfI87vA--111" value="" style="shape=message;html=1;outlineConnect=0;strokeColor=#E07A5F;fontColor=#393C56;fillColor=#F2CC8F;labelBackgroundColor=none;direction=east;" parent="8Pn0S1RL_JVSQfI87vA--110" vertex="1">
          <mxGeometry width="20" height="14" relative="1" as="geometry">
            <mxPoint x="-10" y="-7" as="offset" />
          </mxGeometry>
        </mxCell>
        <mxCell id="8Pn0S1RL_JVSQfI87vA--112" value="" style="endArrow=classic;html=1;rounded=0;strokeColor=#E07A5F;fontColor=default;labelBackgroundColor=none;exitX=1;exitY=0.5;exitDx=0;exitDy=0;exitPerimeter=0;entryX=0.5;entryY=0;entryDx=0;entryDy=0;" parent="1" source="8Pn0S1RL_JVSQfI87vA--107" target="8Pn0S1RL_JVSQfI87vA--105" edge="1">
          <mxGeometry relative="1" as="geometry">
            <mxPoint x="819.6700000000001" y="1372" as="sourcePoint" />
            <mxPoint x="819.6700000000001" y="1456.670000000001" as="targetPoint" />
            <Array as="points">
              <mxPoint x="932" y="1353" />
            </Array>
          </mxGeometry>
        </mxCell>
        <mxCell id="8Pn0S1RL_JVSQfI87vA--113" value="" style="shape=message;html=1;outlineConnect=0;strokeColor=#E07A5F;fontColor=#393C56;fillColor=#F2CC8F;labelBackgroundColor=none;direction=east;" parent="8Pn0S1RL_JVSQfI87vA--112" vertex="1">
          <mxGeometry width="20" height="14" relative="1" as="geometry">
            <mxPoint x="-10" y="-7" as="offset" />
          </mxGeometry>
        </mxCell>
        <mxCell id="8Pn0S1RL_JVSQfI87vA--114" value="scheduled event" style="text;html=1;align=center;verticalAlign=middle;whiteSpace=wrap;rounded=0;labelBackgroundColor=none;fontColor=#393C56;" parent="1" vertex="1">
          <mxGeometry x="725" y="1316" width="163" height="49" as="geometry" />
        </mxCell>
        <mxCell id="8Pn0S1RL_JVSQfI87vA--116" value="expiration time" style="text;html=1;align=center;verticalAlign=middle;whiteSpace=wrap;rounded=0;labelBackgroundColor=none;fontColor=#393C56;" parent="1" vertex="1">
          <mxGeometry x="707" y="1566" width="163" height="49" as="geometry" />
        </mxCell>
        <mxCell id="8Pn0S1RL_JVSQfI87vA--117" value="" style="strokeWidth=2;html=1;shape=mxgraph.flowchart.annotation_2;align=left;labelPosition=right;pointerEvents=1;strokeColor=#E07A5F;fontColor=#393C56;fillColor=#F2CC8F;direction=north;" parent="1" vertex="1">
          <mxGeometry x="654" y="1545" width="269" height="38" as="geometry" />
        </mxCell>
        <mxCell id="8Pn0S1RL_JVSQfI87vA--118" value="time" style="text;html=1;align=center;verticalAlign=middle;whiteSpace=wrap;rounded=0;labelBackgroundColor=none;fontColor=#393C56;" parent="1" vertex="1">
          <mxGeometry x="396" y="1515" width="163" height="49" as="geometry" />
        </mxCell>
        <mxCell id="8Pn0S1RL_JVSQfI87vA--119" value="queue" style="strokeWidth=2;html=1;shape=mxgraph.flowchart.database;whiteSpace=wrap;labelBackgroundColor=none;fillColor=#F2CC8F;strokeColor=#E07A5F;fontColor=#393C56;" parent="1" vertex="1">
          <mxGeometry x="1408" y="838.5" width="80" height="63" as="geometry" />
        </mxCell>
        <mxCell id="0YOIlWyVi92QSZji-Vm6-1" value="api call" style="rounded=1;arcSize=10;whiteSpace=wrap;html=1;align=center;labelBackgroundColor=none;fillColor=#F2CC8F;strokeColor=#E07A5F;fontColor=#393C56;" vertex="1" parent="1">
          <mxGeometry x="1435" y="1444" width="100" height="40" as="geometry" />
        </mxCell>
        <mxCell id="0YOIlWyVi92QSZji-Vm6-2" value="" style="html=1;shadow=0;dashed=0;align=center;verticalAlign=middle;shape=mxgraph.arrows2.arrow;dy=0.71;dx=24.67;notch=0;labelBackgroundColor=none;fillColor=#F2CC8F;strokeColor=#E07A5F;fontColor=#393C56;" vertex="1" parent="1">
          <mxGeometry x="1545" y="1444" width="80" height="40" as="geometry" />
        </mxCell>
        <mxCell id="0YOIlWyVi92QSZji-Vm6-3" value="register visit" style="text;strokeColor=none;fillColor=none;spacingLeft=4;spacingRight=4;overflow=hidden;rotatable=0;points=[[0,0.5],[1,0.5]];portConstraint=eastwest;fontSize=12;whiteSpace=wrap;html=1;labelBackgroundColor=none;fontColor=#393C56;" vertex="1" parent="1">
          <mxGeometry x="1541" y="1419" width="80" height="30" as="geometry" />
        </mxCell>
        <mxCell id="0YOIlWyVi92QSZji-Vm6-4" value="save registerVisitEntity" style="rounded=1;arcSize=10;whiteSpace=wrap;html=1;align=center;labelBackgroundColor=none;fillColor=#F2CC8F;strokeColor=#E07A5F;fontColor=#393C56;" vertex="1" parent="1">
          <mxGeometry x="1633" y="1444" width="100" height="40" as="geometry" />
        </mxCell>
        <mxCell id="0YOIlWyVi92QSZji-Vm6-5" value="" style="endArrow=classic;html=1;rounded=0;strokeColor=#3399FF;fontColor=default;labelBackgroundColor=none;" edge="1" parent="1">
          <mxGeometry relative="1" as="geometry">
            <mxPoint x="1741" y="1463.66" as="sourcePoint" />
            <mxPoint x="1821" y="1463.66" as="targetPoint" />
            <Array as="points">
              <mxPoint x="1772" y="1463.66" />
            </Array>
          </mxGeometry>
        </mxCell>
        <mxCell id="0YOIlWyVi92QSZji-Vm6-6" value="" style="shape=message;html=1;outlineConnect=0;strokeColor=#E07A5F;fontColor=#393C56;fillColor=#3399FF;labelBackgroundColor=none;direction=east;" vertex="1" parent="0YOIlWyVi92QSZji-Vm6-5">
          <mxGeometry width="20" height="14" relative="1" as="geometry">
            <mxPoint x="-10" y="-7" as="offset" />
          </mxGeometry>
        </mxCell>
        <mxCell id="0YOIlWyVi92QSZji-Vm6-7" value="calculate bill" style="rounded=1;arcSize=10;whiteSpace=wrap;html=1;align=center;labelBackgroundColor=none;fillColor=#F2CC8F;strokeColor=#E07A5F;fontColor=#393C56;" vertex="1" parent="1">
          <mxGeometry x="1827" y="1444" width="100" height="40" as="geometry" />
        </mxCell>
        <mxCell id="0YOIlWyVi92QSZji-Vm6-8" value="send email notification to hospital" style="rounded=1;arcSize=10;whiteSpace=wrap;html=1;align=center;labelBackgroundColor=none;fillColor=#F2CC8F;strokeColor=#E07A5F;fontColor=#393C56;" vertex="1" parent="1">
          <mxGeometry x="1574" y="1305" width="100" height="40" as="geometry" />
        </mxCell>
        <mxCell id="0YOIlWyVi92QSZji-Vm6-10" value="send email notification to the doctor" style="rounded=1;arcSize=10;whiteSpace=wrap;html=1;align=center;labelBackgroundColor=none;fillColor=#F2CC8F;strokeColor=#E07A5F;fontColor=#393C56;" vertex="1" parent="1">
          <mxGeometry x="1692" y="1305" width="100" height="40" as="geometry" />
        </mxCell>
        <mxCell id="0YOIlWyVi92QSZji-Vm6-11" value="send return email with bill" style="rounded=1;arcSize=10;whiteSpace=wrap;html=1;align=center;labelBackgroundColor=none;fillColor=#F2CC8F;strokeColor=#E07A5F;fontColor=#393C56;" vertex="1" parent="1">
          <mxGeometry x="1847" y="1305" width="100" height="40" as="geometry" />
        </mxCell>
        <mxCell id="0YOIlWyVi92QSZji-Vm6-12" value="" style="rounded=0;whiteSpace=wrap;html=1;fillColor=none;dashed=1;dashPattern=12 12;shadow=0;labelBackgroundColor=none;strokeColor=#E07A5F;fontColor=#393C56;" vertex="1" parent="1">
          <mxGeometry x="1621" y="1423" width="131" height="74" as="geometry" />
        </mxCell>
        <mxCell id="0YOIlWyVi92QSZji-Vm6-13" value="" style="rounded=0;whiteSpace=wrap;html=1;fillColor=none;dashed=1;dashPattern=12 12;shadow=0;labelBackgroundColor=none;strokeColor=#E07A5F;fontColor=#393C56;" vertex="1" parent="1">
          <mxGeometry x="1811.5" y="1423" width="131" height="74" as="geometry" />
        </mxCell>
        <mxCell id="0YOIlWyVi92QSZji-Vm6-18" value="" style="endArrow=classic;html=1;rounded=0;strokeColor=#00FF00;fontColor=default;labelBackgroundColor=none;" edge="1" parent="1">
          <mxGeometry relative="1" as="geometry">
            <mxPoint x="1720" y="1432" as="sourcePoint" />
            <mxPoint x="1720" y="1350" as="targetPoint" />
            <Array as="points">
              <mxPoint x="1720" y="1393" />
            </Array>
          </mxGeometry>
        </mxCell>
        <mxCell id="0YOIlWyVi92QSZji-Vm6-19" value="" style="shape=message;html=1;outlineConnect=0;strokeColor=#E07A5F;fontColor=#393C56;fillColor=#00FF00;labelBackgroundColor=none;direction=east;" vertex="1" parent="0YOIlWyVi92QSZji-Vm6-18">
          <mxGeometry width="20" height="14" relative="1" as="geometry">
            <mxPoint x="-10" y="-7" as="offset" />
          </mxGeometry>
        </mxCell>
        <mxCell id="0YOIlWyVi92QSZji-Vm6-20" value="" style="endArrow=classic;html=1;rounded=0;strokeColor=#00FF00;fontColor=default;labelBackgroundColor=none;" edge="1" parent="1">
          <mxGeometry relative="1" as="geometry">
            <mxPoint x="1645.66" y="1433" as="sourcePoint" />
            <mxPoint x="1645.66" y="1351" as="targetPoint" />
            <Array as="points">
              <mxPoint x="1645.66" y="1394" />
            </Array>
          </mxGeometry>
        </mxCell>
        <mxCell id="0YOIlWyVi92QSZji-Vm6-21" value="" style="shape=message;html=1;outlineConnect=0;strokeColor=#E07A5F;fontColor=#393C56;fillColor=#00FF00;labelBackgroundColor=none;direction=east;" vertex="1" parent="0YOIlWyVi92QSZji-Vm6-20">
          <mxGeometry width="20" height="14" relative="1" as="geometry">
            <mxPoint x="-10" y="-7" as="offset" />
          </mxGeometry>
        </mxCell>
        <mxCell id="0YOIlWyVi92QSZji-Vm6-22" value="" style="endArrow=classic;html=1;rounded=0;strokeColor=#3399FF;fontColor=default;labelBackgroundColor=none;" edge="1" parent="1">
          <mxGeometry relative="1" as="geometry">
            <mxPoint x="1897" y="1434" as="sourcePoint" />
            <mxPoint x="1897" y="1352" as="targetPoint" />
            <Array as="points">
              <mxPoint x="1897" y="1395" />
            </Array>
          </mxGeometry>
        </mxCell>
        <mxCell id="0YOIlWyVi92QSZji-Vm6-23" value="" style="shape=message;html=1;outlineConnect=0;strokeColor=#E07A5F;fontColor=#393C56;fillColor=#3399FF;labelBackgroundColor=none;direction=east;" vertex="1" parent="0YOIlWyVi92QSZji-Vm6-22">
          <mxGeometry width="20" height="14" relative="1" as="geometry">
            <mxPoint x="-10" y="-7" as="offset" />
          </mxGeometry>
        </mxCell>
        <mxCell id="0YOIlWyVi92QSZji-Vm6-26" value="" style="shape=message;html=1;outlineConnect=0;strokeColor=#E07A5F;fontColor=#393C56;fillColor=#3399FF;labelBackgroundColor=none;direction=east;" vertex="1" parent="1">
          <mxGeometry x="1531" y="1306.0003448275866" width="20" height="14" as="geometry" />
        </mxCell>
        <mxCell id="0YOIlWyVi92QSZji-Vm6-28" value="" style="shape=message;html=1;outlineConnect=0;strokeColor=#E07A5F;fontColor=#393C56;fillColor=#00FF00;labelBackgroundColor=none;direction=east;" vertex="1" parent="1">
          <mxGeometry x="1531" y="1330.0003448275866" width="20" height="14" as="geometry" />
        </mxCell>
        <mxCell id="0YOIlWyVi92QSZji-Vm6-29" value="send (command)" style="text;strokeColor=none;fillColor=none;spacingLeft=4;spacingRight=4;overflow=hidden;rotatable=0;points=[[0,0.5],[1,0.5]];portConstraint=eastwest;fontSize=12;whiteSpace=wrap;html=1;labelBackgroundColor=none;fontColor=#393C56;" vertex="1" parent="1">
          <mxGeometry x="1423" y="1299" width="125" height="30" as="geometry" />
        </mxCell>
        <mxCell id="0YOIlWyVi92QSZji-Vm6-30" value="publish (event)" style="text;strokeColor=none;fillColor=none;spacingLeft=4;spacingRight=4;overflow=hidden;rotatable=0;points=[[0,0.5],[1,0.5]];portConstraint=eastwest;fontSize=12;whiteSpace=wrap;html=1;labelBackgroundColor=none;fontColor=#393C56;" vertex="1" parent="1">
          <mxGeometry x="1426" y="1324" width="114" height="30" as="geometry" />
        </mxCell>
        <mxCell id="0YOIlWyVi92QSZji-Vm6-33" value="registerVisit service" style="text;strokeColor=none;fillColor=none;spacingLeft=4;spacingRight=4;overflow=hidden;rotatable=0;points=[[0,0.5],[1,0.5]];portConstraint=eastwest;fontSize=12;whiteSpace=wrap;html=1;labelBackgroundColor=none;fontColor=#393C56;" vertex="1" parent="1">
          <mxGeometry x="1629" y="1493" width="131" height="34" as="geometry" />
        </mxCell>
        <mxCell id="0YOIlWyVi92QSZji-Vm6-34" value="bill service" style="text;strokeColor=none;fillColor=none;spacingLeft=4;spacingRight=4;overflow=hidden;rotatable=0;points=[[0,0.5],[1,0.5]];portConstraint=eastwest;fontSize=12;whiteSpace=wrap;html=1;labelBackgroundColor=none;fontColor=#393C56;" vertex="1" parent="1">
          <mxGeometry x="1844.5" y="1493" width="131" height="34" as="geometry" />
        </mxCell>
        <mxCell id="0YOIlWyVi92QSZji-Vm6-35" value="email service" style="text;strokeColor=none;fillColor=none;spacingLeft=4;spacingRight=4;overflow=hidden;rotatable=0;points=[[0,0.5],[1,0.5]];portConstraint=eastwest;fontSize=12;whiteSpace=wrap;html=1;labelBackgroundColor=none;fontColor=#393C56;" vertex="1" parent="1">
          <mxGeometry x="1696" y="1272" width="131" height="34" as="geometry" />
        </mxCell>
      </root>
    </mxGraphModel>
  </diagram>
</mxfile>
